# Blender v2.83.0 OBJ File: ''
# www.blender.org
mtllib barrel.mtl
o Cylinder
v 0.000000 -0.493073 -0.250000
v 0.000000 0.006927 -0.250000
v 0.176777 0.006927 -0.176777
v 0.176777 -0.493073 -0.176777
v 0.250000 0.006927 0.000000
v 0.250000 -0.493073 -0.000000
v 0.176777 0.006927 0.176777
v 0.176777 -0.493073 0.176777
v 0.000000 0.006927 0.250000
v 0.000000 -0.493073 0.250000
v -0.176777 0.006927 0.176777
v -0.176777 -0.493073 0.176777
v -0.250000 0.006927 0.000000
v -0.250000 -0.493073 -0.000000
v -0.140577 0.006927 -0.140577
v -0.198806 0.006927 0.000000
v -0.198806 -0.063424 -0.000000
v -0.140577 -0.063424 -0.140577
v -0.176777 0.006927 -0.176777
v -0.176777 -0.493073 -0.176777
v 0.000000 0.006927 -0.198806
v 0.140577 0.006927 -0.140577
v 0.198806 0.006927 0.000000
v 0.140577 0.006927 0.140577
v 0.000000 0.006927 0.198806
v -0.140577 0.006927 0.140577
v 0.140577 -0.063424 -0.140577
v 0.000000 -0.063424 -0.198806
v -0.140577 -0.063424 0.140577
v 0.000000 -0.063424 0.198806
v 0.140577 -0.063424 0.140577
v 0.198806 -0.063424 -0.000000
vt 0.628555 -0.441339
vt 0.869849 -0.434325
vt 0.868095 -0.193031
vt 0.626801 -0.200045
vt 0.866341 0.048263
vt 0.625048 0.041249
vt 0.864588 0.289557
vt 0.623294 0.282542
vt 0.862834 0.530851
vt 0.621540 0.523837
vt 0.861081 0.772145
vt 0.619787 0.765131
vt 0.859327 1.013439
vt 0.618033 1.006425
vt 0.699033 0.650908
vt 0.699033 0.373895
vt 0.763072 0.373895
vt 0.763072 0.650908
vt 0.857574 1.254733
vt 0.616280 1.247719
vt 0.855820 1.496027
vt 0.614526 1.489012
vt 0.750000 0.490000
vt 0.919706 0.419706
vt 0.990000 0.250000
vt 0.919706 0.080294
vt 0.750000 0.010000
vt 0.580294 0.080294
vt 0.510000 0.250000
vt 0.580294 0.419706
vt 0.753906 0.874335
vt 0.888860 0.764695
vt 0.923612 0.832855
vt 0.753906 0.970728
vt 0.944760 0.500000
vt 0.993906 0.500000
vt 0.888860 0.235305
vt 0.923612 0.167145
vt 0.753906 0.125665
vt 0.753906 0.029272
vt 0.618952 0.235305
vt 0.584201 0.167145
vt 0.563052 0.500000
vt 0.513906 0.500000
vt 0.618952 0.764694
vt 0.584201 0.832855
vt 0.420263 0.814325
vt 0.240699 0.959464
vt 0.061135 0.814325
vt -0.013243 0.463927
vt 0.061135 0.113529
vt 0.240699 -0.031610
vt 0.420263 0.113529
vt 0.494641 0.463927
vt 0.817139 0.309173
vt 0.817139 0.678425
vt 0.731777 0.678425
vt 0.731777 0.309173
vt 0.804549 0.375027
vt 0.804549 0.662178
vt 0.738167 0.662178
vt 0.738167 0.375027
vt 0.835492 0.594879
vt 0.687909 0.593721
vt 0.688411 0.845621
vt 0.832983 0.844772
vt 0.764758 0.911120
vt 0.621277 0.909809
vt 0.615852 0.697432
vt 0.769408 0.701844
vt 0.716949 0.664693
vt 0.716949 0.341508
vt 0.791662 0.341508
vt 0.791662 0.664693
vt 0.768011 0.362839
vt 0.768011 0.655763
vt 0.700294 0.655763
vt 0.700294 0.362839
vt 0.907931 0.568614
vt 0.718349 0.568614
vt 0.718349 0.393307
vt 0.907931 0.393307
vn 0.3827 0.0000 -0.9239
vn 0.9239 0.0000 -0.3827
vn 0.9239 -0.0000 0.3827
vn 0.3827 -0.0000 0.9239
vn -0.3827 -0.0000 0.9239
vn -0.9239 -0.0000 0.3827
vn -0.9239 0.0000 -0.3827
vn -0.3827 0.0000 -0.9239
vn 0.0000 -1.0000 0.0000
vn 0.0000 1.0000 0.0000
usemtl Material.001
s 1
f 1/1/1 2/2/1 3/3/1 4/4/1
f 4/4/2 3/3/2 5/5/2 6/6/2
f 6/6/3 5/5/3 7/7/3 8/8/3
f 8/8/4 7/7/4 9/9/4 10/10/4
f 10/10/5 9/9/5 11/11/5 12/12/5
f 12/12/6 11/11/6 13/13/6 14/14/6
f 15/15/3 16/16/3 17/17/3 18/18/3
f 14/14/7 13/13/7 19/19/7 20/20/7
f 20/20/8 19/19/8 2/21/8 1/22/8
f 1/23/9 4/24/9 6/25/9 8/26/9 10/27/9 12/28/9 14/29/9 20/30/9
f 21/31/10 22/32/10 3/33/10 2/34/10
f 22/32/10 23/35/10 5/36/10 3/33/10
f 23/35/10 24/37/10 7/38/10 5/36/10
f 24/37/10 25/39/10 9/40/10 7/38/10
f 25/39/10 26/41/10 11/42/10 9/40/10
f 26/41/10 16/43/10 13/44/10 11/42/10
f 16/43/10 15/45/10 19/46/10 13/44/10
f 15/45/10 21/31/10 2/34/10 19/46/10
f 27/47/10 28/48/10 18/49/10 17/50/10 29/51/10 30/52/10 31/53/10 32/54/10
f 26/55/1 25/56/1 30/57/1 29/58/1
f 24/59/7 23/60/7 32/61/7 31/62/7
f 22/63/5 21/64/5 28/65/5 27/66/5
f 21/67/4 15/68/4 18/69/4 28/70/4
f 16/71/2 26/72/2 29/73/2 17/74/2
f 25/75/8 24/76/8 31/77/8 30/78/8
f 23/79/6 22/80/6 27/81/6 32/82/6
